<svg xmlns="http://www.w3.org/2000/svg" xmlns:xlink="http://www.w3.org/1999/xlink" width="144.684" height="147.06" viewBox="0 0 144.684 147.06">
  <defs>
    <clipPath id="clip-path">
      <path id="Tracé_117" data-name="Tracé 117" d="M49.584,18.831c-.344.027-.686.053-1.026.087-.338.06-.676.118-1.011.184-.33.09-.662.172-.987.273-.319.121-.64.237-.955.364-.306.148-.618.287-.917.447-.291.176-.584.35-.87.532l0,0c-.273.2-.549.395-.815.6L42.24,22c-.146.143-.286.291-.423.442a10.771,10.771,0,0,0-2.236,3.833,6.794,6.794,0,0,0,1.759,1.154c.128.048.257.1.385.151a7.649,7.649,0,0,1,.378-1.335A7.907,7.907,0,0,1,43.527,23.9c.094-.108.19-.214.29-.317l.593-.54c.211-.163.429-.317.642-.478.115-.076.235-.145.355-.213s.225-.125.335-.191c.238-.119.486-.218.727-.33.249-.1.507-.164.758-.248.258-.063.52-.11.778-.169.262-.035.527-.053.789-.083l.791,0a8.023,8.023,0,0,1,1.574.246,7.254,7.254,0,0,0,.03-.793,7.14,7.14,0,0,0-.318-1.918c-.3-.024-.6-.037-.9-.037-.13,0-.26,0-.39.008" transform="translate(-39.581 -18.823)" fill="none"/>
    </clipPath>
    <linearGradient id="linear-gradient" x1="-1.023" y1="1.857" x2="-0.994" y2="1.857" gradientUnits="objectBoundingBox">
      <stop offset="0" stop-color="#fff"/>
      <stop offset="1" stop-color="#e2e3e4"/>
    </linearGradient>
    <clipPath id="clip-path-2">
      <path id="Tracé_118" data-name="Tracé 118" d="M52.7,21.594a9.448,9.448,0,0,1-.187,1.7,8.127,8.127,0,0,1,1.74,1.416,7.405,7.405,0,0,1,1.542,2.556,7.484,7.484,0,0,1,.408,2.9,8.021,8.021,0,0,1-2.262,5.142,7.62,7.62,0,0,1-8.134,1.8,7.686,7.686,0,0,1-2.463-1.491c-.081-.074-.161-.15-.239-.228a7.742,7.742,0,0,1-1.575-2.216,7.849,7.849,0,0,1-.711-2.674A9.894,9.894,0,0,1,38.3,29.453c-.022.236-.039.474-.044.712a10.814,10.814,0,0,0,2.557,7.284c.107.126.216.25.328.371a10.952,10.952,0,0,0,2.514,2q.457.265.941.485a10.925,10.925,0,0,0,4.2.968,10.955,10.955,0,0,0,7.968-3.145q.374-.4.742-.817c.228-.289.443-.59.661-.887.2-.307.377-.635.562-.954.167-.329.311-.67.462-1.005.135-.342.238-.7.352-1.047.093-.355.164-.716.242-1.074.055-.362.087-.728.128-1.09.012-.365.015-.73.018-1.094a11.159,11.159,0,0,0-3.48-7.656l-.807-.687c-.284-.209-.579-.406-.868-.605-.3-.184-.617-.343-.924-.511-.317-.151-.645-.278-.967-.414-.088-.033-.177-.061-.266-.091a9.444,9.444,0,0,1,.078,1.393" transform="translate(-38.251 -20.201)" fill="none"/>
    </clipPath>
    <linearGradient id="linear-gradient-2" x1="-0.372" y1="0.923" x2="-0.359" y2="0.923" xlink:href="#linear-gradient"/>
    <clipPath id="clip-path-3">
      <path id="Tracé_119" data-name="Tracé 119" d="M50.789,27.692c-.213.161-.431.315-.642.478l-.593.54c-.1.1-.2.209-.29.317a8.312,8.312,0,0,1,1.521,2.408,8.145,8.145,0,0,1,.465,1.574c.009.047.02.094.028.141a8.824,8.824,0,0,1,.111,1.775c0,.028,0,.055-.007.084a8.441,8.441,0,0,1-.876,3.291,8.652,8.652,0,0,1-.879,1.4c.079.077.158.154.239.228a7.687,7.687,0,0,0,2.463,1.491A11.807,11.807,0,0,0,53.808,37.2a11.91,11.91,0,0,0,.127-2.276c-.007-.238-.024-.476-.046-.713a12.243,12.243,0,0,0-.239-1.532q-.061-.279-.134-.555a12.64,12.64,0,0,0-.543-1.6,12.39,12.39,0,0,0-1.828-3.051c-.12.068-.24.137-.355.213" transform="translate(-49.264 -27.479)" fill="#eb690b"/>
    </clipPath>
    <clipPath id="clip-path-4">
      <path id="Tracé_120" data-name="Tracé 120" d="M11.438,16.461a12.411,12.411,0,0,0-7.155,3.02A12.574,12.574,0,0,0,.849,33.476a12.829,12.829,0,0,0,1.19,2.34,13.544,13.544,0,0,0,1.641,2.05,11.582,11.582,0,0,0,9.494,3.4,12.964,12.964,0,0,0,4.738-1.453,13.7,13.7,0,0,0,3.079-2.229,10.952,10.952,0,0,1-2.514-2c-.112-.121-.221-.245-.328-.371a7.084,7.084,0,0,1-1.83.757,7.585,7.585,0,0,1-3.146.113,9.31,9.31,0,0,1-2.792-.969A10.131,10.131,0,0,1,8.1,33.445a7.313,7.313,0,0,1-.922-1.071,7.691,7.691,0,0,1-.715-1.221A8.047,8.047,0,0,1,7.5,22.7a8.145,8.145,0,0,1,2.474-2.053,8.02,8.02,0,0,1,1.106-.489,8.172,8.172,0,0,1,2.1-.449c.207-.017.415-.023.623-.023a8.332,8.332,0,0,1,2.785.465,8.436,8.436,0,0,1,1.586.749c.067.041.132.085.2.128.137-.151.278-.3.423-.442l.756-.681c.267-.207.543-.4.815-.6a12.157,12.157,0,0,0-2.711-1.734,12.283,12.283,0,0,0-3.229-.986,12.481,12.481,0,0,0-1.248-.139q-.353-.02-.708-.02-.513,0-1.027.042" transform="translate(0 -16.419)" fill="#eb690b"/>
    </clipPath>
    <clipPath id="clip-path-5">
      <path id="Tracé_121" data-name="Tracé 121" d="M29.277,24.446a8.172,8.172,0,0,0-2.1.449l.009.14c.044.311.1.621.155.93.069.306.167.606.252.907.1.3.227.584.341.874a9.415,9.415,0,0,0,2.165,3,9.581,9.581,0,0,0,1.636,1.214A9.893,9.893,0,0,0,34.257,33a9.747,9.747,0,0,0,2.492.323A9.056,9.056,0,0,0,38.3,33.2c0-.028,0-.056.007-.084a8.824,8.824,0,0,0-.111-1.775c-.009-.047-.02-.094-.028-.141a7.336,7.336,0,0,1-1.417.147l-.711-.042c-.235-.033-.468-.075-.7-.11-.231-.051-.456-.127-.684-.187-.093-.032-.183-.068-.275-.1-.128-.051-.257-.1-.385-.151A6.822,6.822,0,0,1,31.741,29.1a7.1,7.1,0,0,1-1.406-2.352c-.066-.218-.143-.43-.2-.648l-.14-.662-.082-.671-.009-.348c-.209,0-.416.007-.623.023" transform="translate(-27.18 -24.423)" fill="none"/>
    </clipPath>
    <radialGradient id="radial-gradient" cx="0.815" cy="-1.116" r="2.083" gradientTransform="matrix(0, 1, 0.799, 0, -2.936, 3.424)" gradientUnits="objectBoundingBox">
      <stop offset="0" stop-color="#868788"/>
      <stop offset="1" stop-color="#a5a6a7"/>
    </radialGradient>
    <clipPath id="clip-path-6">
      <path id="Tracé_122" data-name="Tracé 122" d="M37.147,0a9.576,9.576,0,0,0-6.713,2.785,9.633,9.633,0,0,0-2.085,3.143c-.107.264-.2.533-.282.805a12.108,12.108,0,0,1,2.983.117,6.96,6.96,0,0,1,6.224-4.08A7,7,0,0,1,42.19,4.709a7.071,7.071,0,0,1,1.57,2.23,6.932,6.932,0,0,1,.287.769,7.139,7.139,0,0,1,.318,1.918,7.254,7.254,0,0,1-.03.793,7.1,7.1,0,0,1-1.965,4.3,7.271,7.271,0,0,1-1.414,1.123q.073.276.134.555a12.244,12.244,0,0,1,.239,1.532,9.3,9.3,0,0,0,2.5-1.749A9.451,9.451,0,0,0,45.892,13.2a9.313,9.313,0,0,0,.584-1.871A9.441,9.441,0,0,0,40.942.772,9.649,9.649,0,0,0,37.274,0Z" transform="translate(-28.067)" fill="none"/>
    </clipPath>
    <radialGradient id="radial-gradient-2" cx="0.469" cy="0" r="1.035" gradientTransform="matrix(0, 1, 0.964, 0, -2.313, 2.377)" xlink:href="#radial-gradient"/>
  </defs>
  <g id="Groupe_967" data-name="Groupe 967" transform="translate(-105.5 -4820)">
    <path id="Tracé_114" data-name="Tracé 114" d="M-16512.189-6280.381l-3.811-10.843,19.313-4.4,2.711,6.438,14.908-2.033-3.049-18.3h4.406l13.891,7.116,3.389-7.116,13.893-6.1,3.389-14.909,8.811-1.694,25.752,19.992,37.271,14.57-7.793,25.413-16.943,22.364,4.068,1.694,5.539-6.438s9.029,16.6,7.336,18.637-3.727,7.793-3.727,7.793l11.52,13.892-20.668,17.959-24.945-8.471-12.666,11.859,2.031,6.438-15.586,1.355-1.7-5.083-13.213-2.71-4.066,2.71-23.393-12.537,6.449-11.521,3.389-36.934-12.875-10.166,3.037-4.744-21.674-15.587Z" transform="translate(16621.5 11152.225)" fill="#fff"/>
    <text id="_110_clubs" data-name="110
clubs" transform="translate(187.684 4910.531)" fill="#38373a" font-size="20" font-family="SourceSans3-Bold, 'Source Sans \33 '" font-weight="700"><tspan x="-15.84" y="0">110</tspan><tspan x="-23.32" y="20">clubs</tspan></text>
    <g id="Groupe_911" data-name="Groupe 911" transform="translate(184.861 4859.672)">
      <g id="Groupe_858" data-name="Groupe 858" clip-path="url(#clip-path)">
        <rect id="Rectangle_689" data-name="Rectangle 689" width="14.406" height="14.406" transform="translate(-4.381 4.381) rotate(-45)" fill="url(#linear-gradient)"/>
      </g>
    </g>
    <g id="Groupe_912" data-name="Groupe 912" transform="translate(184.32 4860.234)">
      <g id="Groupe_860" data-name="Groupe 860" clip-path="url(#clip-path-2)">
        <rect id="Rectangle_690" data-name="Rectangle 690" width="30.278" height="30.278" transform="translate(-10.585 10.554) rotate(-45)" fill="url(#linear-gradient-2)"/>
      </g>
    </g>
    <g id="Groupe_913" data-name="Groupe 913" transform="translate(188.809 4863.2)">
      <g id="Groupe_862" data-name="Groupe 862" clip-path="url(#clip-path-3)">
        <rect id="Rectangle_691" data-name="Rectangle 691" width="13.185" height="13.185" transform="translate(-6.972 6.972) rotate(-45)" fill="#eb690b"/>
      </g>
    </g>
    <g id="Groupe_914" data-name="Groupe 914" transform="translate(168.732 4858.693)">
      <g id="Groupe_864" data-name="Groupe 864" clip-path="url(#clip-path-4)">
        <rect id="Rectangle_692" data-name="Rectangle 692" width="32.58" height="32.58" transform="translate(-12.574 12.51) rotate(-45)" fill="#eb690b"/>
      </g>
    </g>
    <g id="Groupe_915" data-name="Groupe 915" transform="translate(179.809 4861.955)">
      <g id="Groupe_866" data-name="Groupe 866" clip-path="url(#clip-path-5)">
        <rect id="Rectangle_693" data-name="Rectangle 693" width="11.145" height="8.907" transform="translate(0 0)" fill="url(#radial-gradient)"/>
      </g>
    </g>
    <g id="Groupe_916" data-name="Groupe 916" transform="translate(180.17 4852.002)">
      <g id="Groupe_868" data-name="Groupe 868" clip-path="url(#clip-path-6)">
        <rect id="Rectangle_694" data-name="Rectangle 694" width="18.605" height="17.931" transform="translate(0 0)" fill="url(#radial-gradient-2)"/>
      </g>
    </g>
  </g>
</svg>
