<?xml version="1.0" encoding="UTF-8"?>
<svg xmlns="http://www.w3.org/2000/svg" width="33.962" height="50" viewBox="0 0 33.962 50">
  <g id="Groupe_980" data-name="Groupe 980" transform="translate(1 1)">
    <path id="t-shirt-line" d="M3,14.654V5.776A1.776,1.776,0,0,1,4.776,4h7.1c0,1.776,1.421,5.327,7.1,5.327s7.1-3.551,7.1-5.327h7.1a1.776,1.776,0,0,1,1.776,1.776v8.878a1.776,1.776,0,0,1-1.776,1.776H31.411a1.776,1.776,0,0,0-1.776,1.776v12.43a1.776,1.776,0,0,1-1.776,1.776H10.1a1.776,1.776,0,0,1-1.776-1.776V18.205A1.776,1.776,0,0,0,6.551,16.43H4.776A1.776,1.776,0,0,1,3,14.654Z" transform="translate(-3 15.589)" fill="#eb690b" stroke="#38373a" stroke-linecap="round" stroke-linejoin="round" stroke-width="2"></path>
    <g id="Groupe_977" data-name="Groupe 977" transform="translate(8.932)">
      <path id="Tracé_167" data-name="Tracé 167" d="M28.757,22c0,4.13-2.522,8.2-6.046,8.2-2.875,0-5-2.568-5.749-5.695" transform="translate(-15.662 -10.575)" fill="none" stroke="#38373a" stroke-linecap="round" stroke-miterlimit="10" stroke-width="2"></path>
      <path id="Tracé_168" data-name="Tracé 168" d="M28.346,10.148,28.159,5.99C27.984,4.148,26,3.105,24.537,2.9a15.92,15.92,0,0,1-2.871-.7,15.936,15.936,0,0,1-2.871.7c-1.465.2-3.448,1.245-3.622,3.087l-.187,4.158c-.32,1.014-.861,2.181.6,2.614a4.17,4.17,0,0,0,2.9-.7,4.941,4.941,0,0,1,3.18-.845,4.94,4.94,0,0,1,3.18.845,4.171,4.171,0,0,0,2.9.7C29.207,12.33,28.666,11.162,28.346,10.148Z" transform="translate(-14.617 -1.751)" fill="#eb690b" stroke="#38373a" stroke-miterlimit="10" stroke-width="2"></path>
      <path id="Tracé_169" data-name="Tracé 169" d="M15.186,15.156s5.681-5.4,13.467-.153" transform="translate(-14.87 -6.435)" fill="none" stroke="#2a3642" stroke-miterlimit="10" stroke-width="2"></path>
      <path id="Tracé_171" data-name="Tracé 171" d="M26.808,1.387c-.362,0-.657.2-.657.438h1.314C27.465,1.583,27.171,1.387,26.808,1.387Z" transform="translate(-19.759 -1.387)" fill="none" stroke="#38373a" stroke-miterlimit="10" stroke-width="2"></path>
    </g>
  </g>
</svg>
